<svg xmlns="http://www.w3.org/2000/svg" xmlns:xlink="http://www.w3.org/1999/xlink" width="500" zoomAndPan="magnify" viewBox="0 0 375 374.999991" height="500" preserveAspectRatio="xMidYMid meet" version="1.0"><defs><g/><clipPath id="a6d2b6027f"><path d="M 11.28125 136.796875 L 365 136.796875 L 365 334.984375 L 11.28125 334.984375 Z M 11.28125 136.796875 " clip-rule="nonzero"/></clipPath><clipPath id="105c312ed5"><path d="M 28.53125 136.796875 L 347.0625 136.796875 C 351.636719 136.796875 356.027344 138.617188 359.261719 141.851562 C 362.496094 145.085938 364.3125 149.472656 364.3125 154.046875 L 364.3125 317.734375 C 364.3125 322.308594 362.496094 326.695312 359.261719 329.929688 C 356.027344 333.167969 351.636719 334.984375 347.0625 334.984375 L 28.53125 334.984375 C 23.957031 334.984375 19.566406 333.167969 16.332031 329.929688 C 13.097656 326.695312 11.28125 322.308594 11.28125 317.734375 L 11.28125 154.046875 C 11.28125 149.472656 13.097656 145.085938 16.332031 141.851562 C 19.566406 138.617188 23.957031 136.796875 28.53125 136.796875 Z M 28.53125 136.796875 " clip-rule="nonzero"/></clipPath><clipPath id="ce014c0a6d"><path d="M 0.28125 0.796875 L 353.320312 0.796875 L 353.320312 198.984375 L 0.28125 198.984375 Z M 0.28125 0.796875 " clip-rule="nonzero"/></clipPath><clipPath id="3eb0655a0e"><path d="M 17.53125 0.796875 L 336.0625 0.796875 C 340.636719 0.796875 345.027344 2.617188 348.261719 5.851562 C 351.496094 9.085938 353.3125 13.472656 353.3125 18.046875 L 353.3125 181.734375 C 353.3125 186.308594 351.496094 190.695312 348.261719 193.929688 C 345.027344 197.167969 340.636719 198.984375 336.0625 198.984375 L 17.53125 198.984375 C 12.957031 198.984375 8.566406 197.167969 5.332031 193.929688 C 2.097656 190.695312 0.28125 186.308594 0.28125 181.734375 L 0.28125 18.046875 C 0.28125 13.472656 2.097656 9.085938 5.332031 5.851562 C 8.566406 2.617188 12.957031 0.796875 17.53125 0.796875 Z M 17.53125 0.796875 " clip-rule="nonzero"/></clipPath><clipPath id="57e97f1485"><rect x="0" width="354" y="0" height="199"/></clipPath><clipPath id="2dd99dcb89"><path d="M 11.28125 229.367188 L 364.3125 229.367188 L 364.3125 242.414062 L 11.28125 242.414062 Z M 11.28125 229.367188 " clip-rule="nonzero"/></clipPath><clipPath id="2d7b44eb60"><path d="M 0.28125 0.367188 L 353.3125 0.367188 L 353.3125 13.414062 L 0.28125 13.414062 Z M 0.28125 0.367188 " clip-rule="nonzero"/></clipPath><clipPath id="d0e5726b2c"><rect x="0" width="354" y="0" height="14"/></clipPath><clipPath id="36279b9505"><path d="M 300.914062 91.335938 L 335.921875 91.335938 L 335.921875 126.296875 L 300.914062 126.296875 Z M 300.914062 91.335938 " clip-rule="nonzero"/></clipPath><clipPath id="265ac998e4"><path d="M 0.914062 0.335938 L 35.921875 0.335938 L 35.921875 35.296875 L 0.914062 35.296875 Z M 0.914062 0.335938 " clip-rule="nonzero"/></clipPath><clipPath id="41eefc1759"><rect x="0" width="36" y="0" height="36"/></clipPath><clipPath id="704140a619"><path d="M 300.617188 73.683594 L 335.921875 73.683594 L 335.921875 108.988281 L 300.617188 108.988281 Z M 300.617188 73.683594 " clip-rule="nonzero"/></clipPath><clipPath id="d417111bb0"><path d="M 318.269531 73.683594 C 308.519531 73.683594 300.617188 81.589844 300.617188 91.335938 C 300.617188 101.085938 308.519531 108.988281 318.269531 108.988281 C 328.015625 108.988281 335.921875 101.085938 335.921875 91.335938 C 335.921875 81.589844 328.015625 73.683594 318.269531 73.683594 Z M 318.269531 73.683594 " clip-rule="nonzero"/></clipPath><clipPath id="8e0274b1ff"><path d="M 0.617188 0.683594 L 35.921875 0.683594 L 35.921875 35.988281 L 0.617188 35.988281 Z M 0.617188 0.683594 " clip-rule="nonzero"/></clipPath><clipPath id="d57c5be36f"><path d="M 18.269531 0.683594 C 8.519531 0.683594 0.617188 8.589844 0.617188 18.335938 C 0.617188 28.085938 8.519531 35.988281 18.269531 35.988281 C 28.015625 35.988281 35.921875 28.085938 35.921875 18.335938 C 35.921875 8.589844 28.015625 0.683594 18.269531 0.683594 Z M 18.269531 0.683594 " clip-rule="nonzero"/></clipPath><clipPath id="a1e35e380d"><rect x="0" width="36" y="0" height="36"/></clipPath><clipPath id="cc1d996eca"><path d="M 136.957031 73.683594 L 318.417969 73.683594 L 318.417969 108.988281 L 136.957031 108.988281 Z M 136.957031 73.683594 " clip-rule="nonzero"/></clipPath><clipPath id="b8eb2cef22"><path d="M 0.957031 0.683594 L 182.417969 0.683594 L 182.417969 35.988281 L 0.957031 35.988281 Z M 0.957031 0.683594 " clip-rule="nonzero"/></clipPath><clipPath id="7acc85725d"><rect x="0" width="183" y="0" height="36"/></clipPath><clipPath id="6cd0f9fa30"><path d="M 88.207031 73.683594 L 190.667969 73.683594 L 190.667969 108.988281 L 88.207031 108.988281 Z M 88.207031 73.683594 " clip-rule="nonzero"/></clipPath><clipPath id="346eba2c46"><path d="M 190.660156 108.988281 C 190.660156 89.757812 167.335938 73.683594 139.433594 73.683594 C 111.53125 73.683594 88.207031 89.757812 88.207031 108.988281 Z M 190.660156 108.988281 " clip-rule="nonzero"/></clipPath><clipPath id="9d7c54cad8"><path d="M 0.207031 0.683594 L 102.667969 0.683594 L 102.667969 35.988281 L 0.207031 35.988281 Z M 0.207031 0.683594 " clip-rule="nonzero"/></clipPath><clipPath id="ee7b72c41e"><path d="M 102.660156 35.988281 C 102.660156 16.757812 79.335938 0.683594 51.433594 0.683594 C 23.53125 0.683594 0.207031 16.757812 0.207031 35.988281 Z M 102.660156 35.988281 " clip-rule="nonzero"/></clipPath><clipPath id="50a2a05989"><rect x="0" width="103" y="0" height="36"/></clipPath><clipPath id="62919e7d6c"><path d="M 113.582031 88.960938 L 126.820312 88.960938 L 126.820312 102.199219 L 113.582031 102.199219 Z M 113.582031 88.960938 " clip-rule="nonzero"/></clipPath><clipPath id="0385bb475d"><path d="M 120.203125 88.960938 C 116.546875 88.960938 113.582031 91.921875 113.582031 95.578125 C 113.582031 99.234375 116.546875 102.199219 120.203125 102.199219 C 123.859375 102.199219 126.820312 99.234375 126.820312 95.578125 C 126.820312 91.921875 123.859375 88.960938 120.203125 88.960938 Z M 120.203125 88.960938 " clip-rule="nonzero"/></clipPath><clipPath id="506ccba7e1"><path d="M 0.582031 0.960938 L 13.820312 0.960938 L 13.820312 14.199219 L 0.582031 14.199219 Z M 0.582031 0.960938 " clip-rule="nonzero"/></clipPath><clipPath id="a529c23c10"><path d="M 7.203125 0.960938 C 3.546875 0.960938 0.582031 3.921875 0.582031 7.578125 C 0.582031 11.234375 3.546875 14.199219 7.203125 14.199219 C 10.859375 14.199219 13.820312 11.234375 13.820312 7.578125 C 13.820312 3.921875 10.859375 0.960938 7.203125 0.960938 Z M 7.203125 0.960938 " clip-rule="nonzero"/></clipPath><clipPath id="fa783dd3d3"><rect x="0" width="14" y="0" height="15"/></clipPath><clipPath id="fb5430e6ff"><path d="M 39.972656 47.167969 L 74.976562 47.167969 L 74.976562 126.296875 L 39.972656 126.296875 Z M 39.972656 47.167969 " clip-rule="nonzero"/></clipPath><clipPath id="a3f080bcbd"><path d="M 0.972656 0.167969 L 35.976562 0.167969 L 35.976562 79.296875 L 0.972656 79.296875 Z M 0.972656 0.167969 " clip-rule="nonzero"/></clipPath><clipPath id="39e5b02bcc"><rect x="0" width="36" y="0" height="80"/></clipPath><clipPath id="5e04709dd5"><path d="M 39.671875 29.515625 L 74.976562 29.515625 L 74.976562 64.820312 L 39.671875 64.820312 Z M 39.671875 29.515625 " clip-rule="nonzero"/></clipPath><clipPath id="135e7cd873"><path d="M 57.324219 29.515625 C 47.578125 29.515625 39.671875 37.417969 39.671875 47.167969 C 39.671875 56.917969 47.578125 64.820312 57.324219 64.820312 C 67.074219 64.820312 74.976562 56.917969 74.976562 47.167969 C 74.976562 37.417969 67.074219 29.515625 57.324219 29.515625 Z M 57.324219 29.515625 " clip-rule="nonzero"/></clipPath><clipPath id="334c01cff9"><path d="M 0.671875 0.515625 L 35.976562 0.515625 L 35.976562 35.820312 L 0.671875 35.820312 Z M 0.671875 0.515625 " clip-rule="nonzero"/></clipPath><clipPath id="f542c045c9"><path d="M 18.324219 0.515625 C 8.578125 0.515625 0.671875 8.417969 0.671875 18.167969 C 0.671875 27.917969 8.578125 35.820312 18.324219 35.820312 C 28.074219 35.820312 35.976562 27.917969 35.976562 18.167969 C 35.976562 8.417969 28.074219 0.515625 18.324219 0.515625 Z M 18.324219 0.515625 " clip-rule="nonzero"/></clipPath><clipPath id="7dea0d71d8"><rect x="0" width="36" y="0" height="36"/></clipPath><clipPath id="00e1d23e33"><path d="M 57.324219 29.515625 L 282.589844 29.515625 L 282.589844 64.820312 L 57.324219 64.820312 Z M 57.324219 29.515625 " clip-rule="nonzero"/></clipPath><clipPath id="d098c44159"><path d="M 0.324219 0.515625 L 225.589844 0.515625 L 225.589844 35.820312 L 0.324219 35.820312 Z M 0.324219 0.515625 " clip-rule="nonzero"/></clipPath><clipPath id="5137f943cb"><rect x="0" width="226" y="0" height="36"/></clipPath><clipPath id="e50682e13c"><path d="M 229.554688 29.515625 L 335.742188 29.515625 L 335.742188 64.820312 L 229.554688 64.820312 Z M 229.554688 29.515625 " clip-rule="nonzero"/></clipPath><clipPath id="5d15b6d0a3"><path d="M 335.625 64.820312 C 335.625 45.589844 311.476562 29.515625 282.589844 29.515625 C 253.703125 29.515625 229.554688 45.589844 229.554688 64.820312 Z M 335.625 64.820312 " clip-rule="nonzero"/></clipPath><clipPath id="4e0ac9c008"><path d="M 0.554688 0.515625 L 106.742188 0.515625 L 106.742188 35.820312 L 0.554688 35.820312 Z M 0.554688 0.515625 " clip-rule="nonzero"/></clipPath><clipPath id="7007982432"><path d="M 106.625 35.820312 C 106.625 16.589844 82.476562 0.515625 53.589844 0.515625 C 24.703125 0.515625 0.554688 16.589844 0.554688 35.820312 Z M 106.625 35.820312 " clip-rule="nonzero"/></clipPath><clipPath id="40120ad616"><rect x="0" width="107" y="0" height="36"/></clipPath><clipPath id="087a85d29a"><path d="M 293.550781 42.753906 L 306.789062 42.753906 L 306.789062 55.992188 L 293.550781 55.992188 Z M 293.550781 42.753906 " clip-rule="nonzero"/></clipPath><clipPath id="ab064db518"><path d="M 300.167969 42.753906 C 296.515625 42.753906 293.550781 45.71875 293.550781 49.375 C 293.550781 53.03125 296.515625 55.992188 300.167969 55.992188 C 303.824219 55.992188 306.789062 53.03125 306.789062 49.375 C 306.789062 45.71875 303.824219 42.753906 300.167969 42.753906 Z M 300.167969 42.753906 " clip-rule="nonzero"/></clipPath><clipPath id="9c989e7ebf"><path d="M 0.550781 0.753906 L 13.789062 0.753906 L 13.789062 13.992188 L 0.550781 13.992188 Z M 0.550781 0.753906 " clip-rule="nonzero"/></clipPath><clipPath id="e9c5c4694f"><path d="M 7.167969 0.753906 C 3.515625 0.753906 0.550781 3.71875 0.550781 7.375 C 0.550781 11.03125 3.515625 13.992188 7.167969 13.992188 C 10.824219 13.992188 13.789062 11.03125 13.789062 7.375 C 13.789062 3.71875 10.824219 0.753906 7.167969 0.753906 Z M 7.167969 0.753906 " clip-rule="nonzero"/></clipPath><clipPath id="b89537cb6e"><rect x="0" width="14" y="0" height="14"/></clipPath><clipPath id="8f4c6af9ed"><path d="M 35.511719 213.609375 L 79.734375 213.609375 L 79.734375 258.175781 L 35.511719 258.175781 Z M 35.511719 213.609375 " clip-rule="nonzero"/></clipPath><clipPath id="856856cd59"><path d="M 43.011719 213.609375 L 72.234375 213.609375 C 76.375 213.609375 79.734375 216.96875 79.734375 221.109375 L 79.734375 250.671875 C 79.734375 254.816406 76.375 258.171875 72.234375 258.171875 L 43.011719 258.171875 C 38.871094 258.171875 35.511719 254.816406 35.511719 250.671875 L 35.511719 221.109375 C 35.511719 216.96875 38.871094 213.609375 43.011719 213.609375 Z M 43.011719 213.609375 " clip-rule="nonzero"/></clipPath><clipPath id="fd1081af8b"><path d="M 0.511719 0.609375 L 44.734375 0.609375 L 44.734375 45.175781 L 0.511719 45.175781 Z M 0.511719 0.609375 " clip-rule="nonzero"/></clipPath><clipPath id="c3b6e8fe5c"><path d="M 8.011719 0.609375 L 37.234375 0.609375 C 41.375 0.609375 44.734375 3.96875 44.734375 8.109375 L 44.734375 37.671875 C 44.734375 41.816406 41.375 45.171875 37.234375 45.171875 L 8.011719 45.171875 C 3.871094 45.171875 0.511719 41.816406 0.511719 37.671875 L 0.511719 8.109375 C 0.511719 3.96875 3.871094 0.609375 8.011719 0.609375 Z M 8.011719 0.609375 " clip-rule="nonzero"/></clipPath><clipPath id="f19581b1fb"><rect x="0" width="45" y="0" height="46"/></clipPath><clipPath id="fd0dda82f1"><path d="M 42.636719 221.03125 L 72.707031 221.03125 L 72.707031 250.75 L 42.636719 250.75 Z M 42.636719 221.03125 " clip-rule="nonzero"/></clipPath><clipPath id="8027c19078"><path d="M 50.136719 221.03125 L 65.109375 221.03125 C 69.25 221.03125 72.609375 224.390625 72.609375 228.53125 L 72.609375 243.25 C 72.609375 247.394531 69.25 250.75 65.109375 250.75 L 50.136719 250.75 C 45.996094 250.75 42.636719 247.394531 42.636719 243.25 L 42.636719 228.53125 C 42.636719 224.390625 45.996094 221.03125 50.136719 221.03125 Z M 50.136719 221.03125 " clip-rule="nonzero"/></clipPath><clipPath id="4fdcbc38d4"><path d="M 0.636719 0.03125 L 30.707031 0.03125 L 30.707031 29.75 L 0.636719 29.75 Z M 0.636719 0.03125 " clip-rule="nonzero"/></clipPath><clipPath id="19dfd6484e"><path d="M 8.136719 0.03125 L 23.109375 0.03125 C 27.25 0.03125 30.609375 3.390625 30.609375 7.53125 L 30.609375 22.25 C 30.609375 26.394531 27.25 29.75 23.109375 29.75 L 8.136719 29.75 C 3.996094 29.75 0.636719 26.394531 0.636719 22.25 L 0.636719 7.53125 C 0.636719 3.390625 3.996094 0.03125 8.136719 0.03125 Z M 8.136719 0.03125 " clip-rule="nonzero"/></clipPath><clipPath id="ffbdc913bd"><rect x="0" width="31" y="0" height="30"/></clipPath><clipPath id="cae04444dc"><path d="M 296.011719 213.609375 L 340.230469 213.609375 L 340.230469 258.175781 L 296.011719 258.175781 Z M 296.011719 213.609375 " clip-rule="nonzero"/></clipPath><clipPath id="3ad23e14fa"><path d="M 303.511719 213.609375 L 332.730469 213.609375 C 336.871094 213.609375 340.230469 216.96875 340.230469 221.109375 L 340.230469 250.671875 C 340.230469 254.816406 336.871094 258.171875 332.730469 258.171875 L 303.511719 258.171875 C 299.367188 258.171875 296.011719 254.816406 296.011719 250.671875 L 296.011719 221.109375 C 296.011719 216.96875 299.367188 213.609375 303.511719 213.609375 Z M 303.511719 213.609375 " clip-rule="nonzero"/></clipPath><clipPath id="8f849e410c"><path d="M 0.0117188 0.609375 L 44.230469 0.609375 L 44.230469 45.175781 L 0.0117188 45.175781 Z M 0.0117188 0.609375 " clip-rule="nonzero"/></clipPath><clipPath id="c20e8f4d8a"><path d="M 7.511719 0.609375 L 36.730469 0.609375 C 40.871094 0.609375 44.230469 3.96875 44.230469 8.109375 L 44.230469 37.671875 C 44.230469 41.816406 40.871094 45.171875 36.730469 45.171875 L 7.511719 45.171875 C 3.367188 45.171875 0.0117188 41.816406 0.0117188 37.671875 L 0.0117188 8.109375 C 0.0117188 3.96875 3.367188 0.609375 7.511719 0.609375 Z M 7.511719 0.609375 " clip-rule="nonzero"/></clipPath><clipPath id="9329ff0f52"><rect x="0" width="45" y="0" height="46"/></clipPath><clipPath id="7b17f93afb"><path d="M 303.285156 221.03125 L 333.351562 221.03125 L 333.351562 250.75 L 303.285156 250.75 Z M 303.285156 221.03125 " clip-rule="nonzero"/></clipPath><clipPath id="512bccfde2"><path d="M 310.785156 221.03125 L 325.753906 221.03125 C 329.898438 221.03125 333.253906 224.390625 333.253906 228.53125 L 333.253906 243.25 C 333.253906 247.394531 329.898438 250.75 325.753906 250.75 L 310.785156 250.75 C 306.640625 250.75 303.285156 247.394531 303.285156 243.25 L 303.285156 228.53125 C 303.285156 224.390625 306.640625 221.03125 310.785156 221.03125 Z M 310.785156 221.03125 " clip-rule="nonzero"/></clipPath><clipPath id="3ef06c9bed"><path d="M 0.285156 0.03125 L 30.351562 0.03125 L 30.351562 29.75 L 0.285156 29.75 Z M 0.285156 0.03125 " clip-rule="nonzero"/></clipPath><clipPath id="9dd69c9bdd"><path d="M 7.785156 0.03125 L 22.753906 0.03125 C 26.898438 0.03125 30.253906 3.390625 30.253906 7.53125 L 30.253906 22.25 C 30.253906 26.394531 26.898438 29.75 22.753906 29.75 L 7.785156 29.75 C 3.640625 29.75 0.285156 26.394531 0.285156 22.25 L 0.285156 7.53125 C 0.285156 3.390625 3.640625 0.03125 7.785156 0.03125 Z M 7.785156 0.03125 " clip-rule="nonzero"/></clipPath><clipPath id="f870b99b00"><rect x="0" width="31" y="0" height="30"/></clipPath><clipPath id="02be753ee0"><rect x="0" width="170" y="0" height="38"/></clipPath></defs><g clip-path="url(#a6d2b6027f)"><g clip-path="url(#105c312ed5)"><g transform="matrix(1, 0, 0, 1, 11, 136)"><g clip-path="url(#57e97f1485)"><g clip-path="url(#ce014c0a6d)"><g clip-path="url(#3eb0655a0e)"><path fill="#dbd2cc" d="M 0.28125 0.796875 L 353.300781 0.796875 L 353.300781 198.984375 L 0.28125 198.984375 Z M 0.28125 0.796875 " fill-opacity="1" fill-rule="nonzero"/></g></g></g></g></g></g><g clip-path="url(#2dd99dcb89)"><g transform="matrix(1, 0, 0, 1, 11, 229)"><g clip-path="url(#d0e5726b2c)"><g clip-path="url(#2d7b44eb60)"><path fill="#0d1117" d="M 0.28125 0.367188 L 353.320312 0.367188 L 353.320312 13.414062 L 0.28125 13.414062 Z M 0.28125 0.367188 " fill-opacity="1" fill-rule="nonzero"/></g></g></g></g><g clip-path="url(#36279b9505)"><g transform="matrix(1, 0, 0, 1, 300, 91)"><g clip-path="url(#41eefc1759)"><g clip-path="url(#265ac998e4)"><path fill="#fed440" d="M 0.914062 0.335938 L 35.875 0.335938 L 35.875 35.296875 L 0.914062 35.296875 Z M 0.914062 0.335938 " fill-opacity="1" fill-rule="nonzero"/></g></g></g></g><g clip-path="url(#704140a619)"><g clip-path="url(#d417111bb0)"><g transform="matrix(1, 0, 0, 1, 300, 73)"><g clip-path="url(#a1e35e380d)"><g clip-path="url(#8e0274b1ff)"><g clip-path="url(#d57c5be36f)"><path fill="#fed440" d="M 0.617188 0.683594 L 35.921875 0.683594 L 35.921875 35.988281 L 0.617188 35.988281 Z M 0.617188 0.683594 " fill-opacity="1" fill-rule="nonzero"/></g></g></g></g></g></g><g clip-path="url(#cc1d996eca)"><g transform="matrix(1, 0, 0, 1, 136, 73)"><g clip-path="url(#7acc85725d)"><g clip-path="url(#b8eb2cef22)"><path fill="#fed440" d="M 0.957031 0.683594 L 182.4375 0.683594 L 182.4375 35.988281 L 0.957031 35.988281 Z M 0.957031 0.683594 " fill-opacity="1" fill-rule="nonzero"/></g></g></g></g><g clip-path="url(#6cd0f9fa30)"><g clip-path="url(#346eba2c46)"><g transform="matrix(1, 0, 0, 1, 88, 73)"><g clip-path="url(#50a2a05989)"><g clip-path="url(#9d7c54cad8)"><g clip-path="url(#ee7b72c41e)"><path fill="#fed440" d="M 0.207031 0.683594 L 102.667969 0.683594 L 102.667969 35.988281 L 0.207031 35.988281 Z M 0.207031 0.683594 " fill-opacity="1" fill-rule="nonzero"/></g></g></g></g></g></g><g clip-path="url(#62919e7d6c)"><g clip-path="url(#0385bb475d)"><g transform="matrix(1, 0, 0, 1, 113, 88)"><g clip-path="url(#fa783dd3d3)"><g clip-path="url(#506ccba7e1)"><g clip-path="url(#a529c23c10)"><path fill="#0d1117" d="M 0.582031 0.960938 L 13.820312 0.960938 L 13.820312 14.199219 L 0.582031 14.199219 Z M 0.582031 0.960938 " fill-opacity="1" fill-rule="nonzero"/></g></g></g></g></g></g><g clip-path="url(#fb5430e6ff)"><g transform="matrix(1, 0, 0, 1, 39, 47)"><g clip-path="url(#39e5b02bcc)"><g clip-path="url(#a3f080bcbd)"><path fill="#3e7baa" d="M 0.972656 0.167969 L 35.976562 0.167969 L 35.976562 79.339844 L 0.972656 79.339844 Z M 0.972656 0.167969 " fill-opacity="1" fill-rule="nonzero"/></g></g></g></g><g clip-path="url(#5e04709dd5)"><g clip-path="url(#135e7cd873)"><g transform="matrix(1, 0, 0, 1, 39, 29)"><g clip-path="url(#7dea0d71d8)"><g clip-path="url(#334c01cff9)"><g clip-path="url(#f542c045c9)"><path fill="#3e7baa" d="M 0.671875 0.515625 L 35.976562 0.515625 L 35.976562 35.820312 L 0.671875 35.820312 Z M 0.671875 0.515625 " fill-opacity="1" fill-rule="nonzero"/></g></g></g></g></g></g><g clip-path="url(#00e1d23e33)"><g transform="matrix(1, 0, 0, 1, 57, 29)"><g clip-path="url(#5137f943cb)"><g clip-path="url(#d098c44159)"><path fill="#3e7baa" d="M 0.324219 0.515625 L 225.660156 0.515625 L 225.660156 35.820312 L 0.324219 35.820312 Z M 0.324219 0.515625 " fill-opacity="1" fill-rule="nonzero"/></g></g></g></g><g clip-path="url(#e50682e13c)"><g clip-path="url(#5d15b6d0a3)"><g transform="matrix(1, 0, 0, 1, 229, 29)"><g clip-path="url(#40120ad616)"><g clip-path="url(#4e0ac9c008)"><g clip-path="url(#7007982432)"><path fill="#3e7baa" d="M 0.554688 0.515625 L 106.605469 0.515625 L 106.605469 35.820312 L 0.554688 35.820312 Z M 0.554688 0.515625 " fill-opacity="1" fill-rule="nonzero"/></g></g></g></g></g></g><g clip-path="url(#087a85d29a)"><g clip-path="url(#ab064db518)"><g transform="matrix(1, 0, 0, 1, 293, 42)"><g clip-path="url(#b89537cb6e)"><g clip-path="url(#9c989e7ebf)"><g clip-path="url(#e9c5c4694f)"><path fill="#0d1117" d="M 0.550781 0.753906 L 13.789062 0.753906 L 13.789062 13.992188 L 0.550781 13.992188 Z M 0.550781 0.753906 " fill-opacity="1" fill-rule="nonzero"/></g></g></g></g></g></g><g clip-path="url(#8f4c6af9ed)"><g clip-path="url(#856856cd59)"><g transform="matrix(1, 0, 0, 1, 35, 213)"><g clip-path="url(#f19581b1fb)"><g clip-path="url(#fd1081af8b)"><g clip-path="url(#c3b6e8fe5c)"><path fill="#0d1117" d="M 0.511719 0.609375 L 44.734375 0.609375 L 44.734375 45.175781 L 0.511719 45.175781 Z M 0.511719 0.609375 " fill-opacity="1" fill-rule="nonzero"/></g></g></g></g></g></g><g clip-path="url(#fd0dda82f1)"><g clip-path="url(#8027c19078)"><g transform="matrix(1, 0, 0, 1, 42, 221)"><g clip-path="url(#ffbdc913bd)"><g clip-path="url(#4fdcbc38d4)"><g clip-path="url(#19dfd6484e)"><path fill="#fed440" d="M 0.636719 0.03125 L 30.589844 0.03125 L 30.589844 29.75 L 0.636719 29.75 Z M 0.636719 0.03125 " fill-opacity="1" fill-rule="nonzero"/></g></g></g></g></g></g><g clip-path="url(#cae04444dc)"><g clip-path="url(#3ad23e14fa)"><g transform="matrix(1, 0, 0, 1, 296, 213)"><g clip-path="url(#9329ff0f52)"><g clip-path="url(#8f849e410c)"><g clip-path="url(#c20e8f4d8a)"><path fill="#0d1117" d="M 0.0117188 0.609375 L 44.230469 0.609375 L 44.230469 45.175781 L 0.0117188 45.175781 Z M 0.0117188 0.609375 " fill-opacity="1" fill-rule="nonzero"/></g></g></g></g></g></g><g clip-path="url(#7b17f93afb)"><g clip-path="url(#512bccfde2)"><g transform="matrix(1, 0, 0, 1, 303, 221)"><g clip-path="url(#f870b99b00)"><g clip-path="url(#3ef06c9bed)"><g clip-path="url(#9dd69c9bdd)"><path fill="#3e7baa" d="M 0.285156 0.03125 L 30.234375 0.03125 L 30.234375 29.75 L 0.285156 29.75 Z M 0.285156 0.03125 " fill-opacity="1" fill-rule="nonzero"/></g></g></g></g></g></g><g transform="matrix(1, 0, 0, 1, 103, 165)"><g clip-path="url(#02be753ee0)"><g fill="#0d1117" fill-opacity="1"><g transform="translate(0.902031, 26.647254)"><g><path d="M 9.515625 -12.015625 C 10.578125 -12.015625 11.40625 -12.128906 12 -12.359375 C 12.59375 -12.597656 12.988281 -12.921875 13.1875 -13.328125 C 13.382812 -13.734375 13.484375 -14.28125 13.484375 -14.96875 L 13.484375 -16.078125 C 13.484375 -16.578125 13.394531 -16.957031 13.21875 -17.21875 C 13.039062 -17.476562 12.660156 -17.679688 12.078125 -17.828125 C 11.503906 -17.984375 10.648438 -18.0625 9.515625 -18.0625 L 5.15625 -18.0625 L 5.15625 -12.015625 Z M 16.671875 -16.078125 L 16.671875 -14.96875 C 16.671875 -13.03125 16.09375 -11.519531 14.9375 -10.4375 C 13.789062 -9.363281 11.984375 -8.828125 9.515625 -8.828125 L 5.15625 -8.828125 L 5.15625 0 L 1.96875 0 L 1.96875 -21.25 L 9.515625 -21.25 C 10.878906 -21.25 12.03125 -21.140625 12.96875 -20.921875 C 13.90625 -20.703125 14.644531 -20.363281 15.1875 -19.90625 C 15.726562 -19.445312 16.109375 -18.910156 16.328125 -18.296875 C 16.554688 -17.691406 16.671875 -16.953125 16.671875 -16.078125 Z M 16.671875 -16.078125 "/></g></g></g><g fill="#0d1117" fill-opacity="1"><g transform="translate(19.5437, 26.647254)"><g><path d="M 7.75 0.375 L 7.75 -7.421875 L 1.109375 -21.25 L 4.640625 -21.25 L 9.34375 -11.453125 L 14.0625 -21.25 L 17.609375 -21.25 L 10.9375 -7.421875 L 10.9375 0.375 Z M 7.75 0.375 "/></g></g></g><g fill="#0d1117" fill-opacity="1"><g transform="translate(38.185369, 26.647254)"><g><path d="M 16.671875 -21.25 L 16.671875 -18.0625 L 10.9375 -18.0625 L 10.9375 0 L 7.75 0 L 7.75 -18.0625 L 1.96875 -18.0625 L 1.96875 -21.25 Z M 16.671875 -21.25 "/></g></g></g><g fill="#0d1117" fill-opacity="1"><g transform="translate(56.827038, 26.647254)"><g><path d="M 9.484375 -18.4375 L 9.21875 -18.4375 C 8.238281 -18.4375 7.460938 -18.21875 6.890625 -17.78125 C 6.316406 -17.34375 5.882812 -16.601562 5.59375 -15.5625 C 5.300781 -14.519531 5.15625 -13.109375 5.15625 -11.328125 L 5.15625 -10.375 C 5.15625 -7.832031 5.484375 -5.9375 6.140625 -4.6875 C 6.804688 -3.4375 7.835938 -2.8125 9.234375 -2.8125 L 9.484375 -2.8125 C 10.867188 -2.820312 11.878906 -3.445312 12.515625 -4.6875 C 13.160156 -5.925781 13.484375 -7.820312 13.484375 -10.375 L 13.484375 -11.34375 C 13.484375 -13.132812 13.347656 -14.546875 13.078125 -15.578125 C 12.804688 -16.609375 12.382812 -17.34375 11.8125 -17.78125 C 11.238281 -18.21875 10.460938 -18.4375 9.484375 -18.4375 Z M 16.671875 -11.34375 L 16.671875 -10.375 C 16.671875 -9.082031 16.585938 -7.898438 16.421875 -6.828125 C 16.253906 -5.765625 16.03125 -4.867188 15.75 -4.140625 C 15.476562 -3.410156 15.140625 -2.765625 14.734375 -2.203125 C 14.335938 -1.648438 13.929688 -1.210938 13.515625 -0.890625 C 13.109375 -0.578125 12.65625 -0.316406 12.15625 -0.109375 C 11.664062 0.0859375 11.210938 0.21875 10.796875 0.28125 C 10.378906 0.34375 9.941406 0.375 9.484375 0.375 L 9.234375 0.375 C 8.785156 0.375 8.347656 0.34375 7.921875 0.28125 C 7.492188 0.21875 7.03125 0.0859375 6.53125 -0.109375 C 6.03125 -0.316406 5.566406 -0.582031 5.140625 -0.90625 C 4.722656 -1.226562 4.316406 -1.664062 3.921875 -2.21875 C 3.523438 -2.78125 3.1875 -3.425781 2.90625 -4.15625 C 2.625 -4.882812 2.394531 -5.78125 2.21875 -6.84375 C 2.050781 -7.90625 1.96875 -9.082031 1.96875 -10.375 L 1.96875 -11.328125 C 1.96875 -12.273438 2.007812 -13.144531 2.09375 -13.9375 C 2.175781 -14.738281 2.316406 -15.546875 2.515625 -16.359375 C 2.710938 -17.171875 2.988281 -17.878906 3.34375 -18.484375 C 3.707031 -19.097656 4.148438 -19.644531 4.671875 -20.125 C 5.191406 -20.613281 5.832031 -20.984375 6.59375 -21.234375 C 7.363281 -21.492188 8.238281 -21.625 9.21875 -21.625 L 9.484375 -21.625 C 10.460938 -21.625 11.335938 -21.492188 12.109375 -21.234375 C 12.890625 -20.972656 13.535156 -20.597656 14.046875 -20.109375 C 14.566406 -19.628906 15.003906 -19.082031 15.359375 -18.46875 C 15.710938 -17.863281 15.984375 -17.15625 16.171875 -16.34375 C 16.359375 -15.53125 16.488281 -14.734375 16.5625 -13.953125 C 16.632812 -13.171875 16.671875 -12.300781 16.671875 -11.34375 Z M 16.671875 -11.34375 "/></g></g></g><g fill="#0d1117" fill-opacity="1"><g transform="translate(75.468706, 26.647254)"><g><path d="M 9.484375 -18.4375 L 9.21875 -18.4375 C 8.238281 -18.4375 7.460938 -18.21875 6.890625 -17.78125 C 6.316406 -17.34375 5.882812 -16.601562 5.59375 -15.5625 C 5.300781 -14.519531 5.15625 -13.109375 5.15625 -11.328125 L 5.15625 -10.375 C 5.15625 -7.832031 5.484375 -5.9375 6.140625 -4.6875 C 6.804688 -3.4375 7.835938 -2.8125 9.234375 -2.8125 L 9.484375 -2.8125 C 10.867188 -2.820312 11.878906 -3.445312 12.515625 -4.6875 C 13.160156 -5.925781 13.484375 -7.820312 13.484375 -10.375 L 13.484375 -11.34375 C 13.484375 -13.132812 13.347656 -14.546875 13.078125 -15.578125 C 12.804688 -16.609375 12.382812 -17.34375 11.8125 -17.78125 C 11.238281 -18.21875 10.460938 -18.4375 9.484375 -18.4375 Z M 16.671875 -11.34375 L 16.671875 -10.375 C 16.671875 -9.082031 16.585938 -7.898438 16.421875 -6.828125 C 16.253906 -5.765625 16.03125 -4.867188 15.75 -4.140625 C 15.476562 -3.410156 15.140625 -2.765625 14.734375 -2.203125 C 14.335938 -1.648438 13.929688 -1.210938 13.515625 -0.890625 C 13.109375 -0.578125 12.65625 -0.316406 12.15625 -0.109375 C 11.664062 0.0859375 11.210938 0.21875 10.796875 0.28125 C 10.378906 0.34375 9.941406 0.375 9.484375 0.375 L 9.234375 0.375 C 8.785156 0.375 8.347656 0.34375 7.921875 0.28125 C 7.492188 0.21875 7.03125 0.0859375 6.53125 -0.109375 C 6.03125 -0.316406 5.566406 -0.582031 5.140625 -0.90625 C 4.722656 -1.226562 4.316406 -1.664062 3.921875 -2.21875 C 3.523438 -2.78125 3.1875 -3.425781 2.90625 -4.15625 C 2.625 -4.882812 2.394531 -5.78125 2.21875 -6.84375 C 2.050781 -7.90625 1.96875 -9.082031 1.96875 -10.375 L 1.96875 -11.328125 C 1.96875 -12.273438 2.007812 -13.144531 2.09375 -13.9375 C 2.175781 -14.738281 2.316406 -15.546875 2.515625 -16.359375 C 2.710938 -17.171875 2.988281 -17.878906 3.34375 -18.484375 C 3.707031 -19.097656 4.148438 -19.644531 4.671875 -20.125 C 5.191406 -20.613281 5.832031 -20.984375 6.59375 -21.234375 C 7.363281 -21.492188 8.238281 -21.625 9.21875 -21.625 L 9.484375 -21.625 C 10.460938 -21.625 11.335938 -21.492188 12.109375 -21.234375 C 12.890625 -20.972656 13.535156 -20.597656 14.046875 -20.109375 C 14.566406 -19.628906 15.003906 -19.082031 15.359375 -18.46875 C 15.710938 -17.863281 15.984375 -17.15625 16.171875 -16.34375 C 16.359375 -15.53125 16.488281 -14.734375 16.5625 -13.953125 C 16.632812 -13.171875 16.671875 -12.300781 16.671875 -11.34375 Z M 16.671875 -11.34375 "/></g></g></g><g fill="#0d1117" fill-opacity="1"><g transform="translate(94.110375, 26.647254)"><g><path d="M 5.15625 -3.203125 L 16.671875 -3.203125 L 16.671875 0 L 1.96875 0 L 1.96875 -21.25 L 5.15625 -21.25 Z M 5.15625 -3.203125 "/></g></g></g><g fill="#0d1117" fill-opacity="1"><g transform="translate(112.752044, 26.647254)"><g><path d="M 1.953125 0 L 1.953125 -21.25 L 5.140625 -21.25 L 5.140625 -11.671875 L 13.53125 -21.25 L 17.78125 -21.25 L 9.625 -11.9375 L 18.046875 0 C 18.046875 0 16.742188 0 14.140625 0 L 7.46875 -9.484375 L 5.140625 -6.84375 L 5.140625 0 Z M 1.953125 0 "/></g></g></g><g fill="#0d1117" fill-opacity="1"><g transform="translate(131.393712, 26.647254)"><g><path d="M 15.15625 -21.25 L 15.15625 -18.0625 L 10.9375 -18.0625 L 10.9375 -3.1875 L 15.15625 -3.1875 L 15.15625 0 L 3.484375 0 L 3.484375 -3.1875 L 7.75 -3.1875 L 7.75 -18.0625 L 3.484375 -18.0625 L 3.484375 -21.25 Z M 15.15625 -21.25 "/></g></g></g><g fill="#0d1117" fill-opacity="1"><g transform="translate(150.035381, 26.647254)"><g><path d="M 16.671875 -21.25 L 16.671875 -18.0625 L 10.9375 -18.0625 L 10.9375 0 L 7.75 0 L 7.75 -18.0625 L 1.96875 -18.0625 L 1.96875 -21.25 Z M 16.671875 -21.25 "/></g></g></g></g></g></svg>