<svg xmlns="http://www.w3.org/2000/svg" xmlns:xlink="http://www.w3.org/1999/xlink" width="500" zoomAndPan="magnify" viewBox="0 0 375 374.999991" height="500" preserveAspectRatio="xMidYMid meet" version="1.0"><defs><g/><clipPath id="0e5bbd279e"><path d="M 11.28125 136.796875 L 365 136.796875 L 365 334.984375 L 11.28125 334.984375 Z M 11.28125 136.796875 " clip-rule="nonzero"/></clipPath><clipPath id="43576b45a7"><path d="M 28.53125 136.796875 L 347.0625 136.796875 C 351.636719 136.796875 356.027344 138.617188 359.261719 141.851562 C 362.496094 145.085938 364.3125 149.472656 364.3125 154.046875 L 364.3125 317.734375 C 364.3125 322.308594 362.496094 326.695312 359.261719 329.929688 C 356.027344 333.167969 351.636719 334.984375 347.0625 334.984375 L 28.53125 334.984375 C 23.957031 334.984375 19.566406 333.167969 16.332031 329.929688 C 13.097656 326.695312 11.28125 322.308594 11.28125 317.734375 L 11.28125 154.046875 C 11.28125 149.472656 13.097656 145.085938 16.332031 141.851562 C 19.566406 138.617188 23.957031 136.796875 28.53125 136.796875 Z M 28.53125 136.796875 " clip-rule="nonzero"/></clipPath><clipPath id="d9b62edb60"><path d="M 0.28125 0.796875 L 353.320312 0.796875 L 353.320312 198.984375 L 0.28125 198.984375 Z M 0.28125 0.796875 " clip-rule="nonzero"/></clipPath><clipPath id="47096eef69"><path d="M 17.53125 0.796875 L 336.0625 0.796875 C 340.636719 0.796875 345.027344 2.617188 348.261719 5.851562 C 351.496094 9.085938 353.3125 13.472656 353.3125 18.046875 L 353.3125 181.734375 C 353.3125 186.308594 351.496094 190.695312 348.261719 193.929688 C 345.027344 197.167969 340.636719 198.984375 336.0625 198.984375 L 17.53125 198.984375 C 12.957031 198.984375 8.566406 197.167969 5.332031 193.929688 C 2.097656 190.695312 0.28125 186.308594 0.28125 181.734375 L 0.28125 18.046875 C 0.28125 13.472656 2.097656 9.085938 5.332031 5.851562 C 8.566406 2.617188 12.957031 0.796875 17.53125 0.796875 Z M 17.53125 0.796875 " clip-rule="nonzero"/></clipPath><clipPath id="9d25c63481"><rect x="0" width="354" y="0" height="199"/></clipPath><clipPath id="8981db7694"><path d="M 11.28125 229.367188 L 364.3125 229.367188 L 364.3125 242.414062 L 11.28125 242.414062 Z M 11.28125 229.367188 " clip-rule="nonzero"/></clipPath><clipPath id="cf7e7f0483"><path d="M 0.28125 0.367188 L 353.3125 0.367188 L 353.3125 13.414062 L 0.28125 13.414062 Z M 0.28125 0.367188 " clip-rule="nonzero"/></clipPath><clipPath id="85a7e019da"><rect x="0" width="354" y="0" height="14"/></clipPath><clipPath id="d9ee26d778"><path d="M 300.765625 101.835938 L 335.773438 101.835938 L 335.773438 136.796875 L 300.765625 136.796875 Z M 300.765625 101.835938 " clip-rule="nonzero"/></clipPath><clipPath id="f363918c08"><path d="M 0.765625 0.835938 L 35.773438 0.835938 L 35.773438 35.796875 L 0.765625 35.796875 Z M 0.765625 0.835938 " clip-rule="nonzero"/></clipPath><clipPath id="4cdcadfea1"><rect x="0" width="36" y="0" height="36"/></clipPath><clipPath id="67e6b1815b"><path d="M 300.46875 84.183594 L 335.773438 84.183594 L 335.773438 119.488281 L 300.46875 119.488281 Z M 300.46875 84.183594 " clip-rule="nonzero"/></clipPath><clipPath id="a4e8a8ebf6"><path d="M 318.121094 84.183594 C 308.371094 84.183594 300.46875 92.089844 300.46875 101.835938 C 300.46875 111.585938 308.371094 119.488281 318.121094 119.488281 C 327.867188 119.488281 335.773438 111.585938 335.773438 101.835938 C 335.773438 92.089844 327.867188 84.183594 318.121094 84.183594 Z M 318.121094 84.183594 " clip-rule="nonzero"/></clipPath><clipPath id="a83cd7b7ed"><path d="M 0.46875 0.183594 L 35.773438 0.183594 L 35.773438 35.488281 L 0.46875 35.488281 Z M 0.46875 0.183594 " clip-rule="nonzero"/></clipPath><clipPath id="39a119ec82"><path d="M 18.121094 0.183594 C 8.371094 0.183594 0.46875 8.089844 0.46875 17.835938 C 0.46875 27.585938 8.371094 35.488281 18.121094 35.488281 C 27.867188 35.488281 35.773438 27.585938 35.773438 17.835938 C 35.773438 8.089844 27.867188 0.183594 18.121094 0.183594 Z M 18.121094 0.183594 " clip-rule="nonzero"/></clipPath><clipPath id="d839f5f732"><rect x="0" width="36" y="0" height="36"/></clipPath><clipPath id="18d078c6a4"><path d="M 136.808594 84.183594 L 318.269531 84.183594 L 318.269531 119.488281 L 136.808594 119.488281 Z M 136.808594 84.183594 " clip-rule="nonzero"/></clipPath><clipPath id="966e7d397d"><path d="M 0.808594 0.183594 L 182.269531 0.183594 L 182.269531 35.488281 L 0.808594 35.488281 Z M 0.808594 0.183594 " clip-rule="nonzero"/></clipPath><clipPath id="aaec283780"><rect x="0" width="183" y="0" height="36"/></clipPath><clipPath id="203c65ae22"><path d="M 88.058594 84.183594 L 190.519531 84.183594 L 190.519531 119.488281 L 88.058594 119.488281 Z M 88.058594 84.183594 " clip-rule="nonzero"/></clipPath><clipPath id="8d4ace4c7a"><path d="M 190.511719 119.488281 C 190.511719 100.257812 167.1875 84.183594 139.285156 84.183594 C 111.382812 84.183594 88.058594 100.257812 88.058594 119.488281 Z M 190.511719 119.488281 " clip-rule="nonzero"/></clipPath><clipPath id="cb92d515d7"><path d="M 0.0585938 0.183594 L 102.519531 0.183594 L 102.519531 35.488281 L 0.0585938 35.488281 Z M 0.0585938 0.183594 " clip-rule="nonzero"/></clipPath><clipPath id="ecba0657ff"><path d="M 102.511719 35.488281 C 102.511719 16.257812 79.1875 0.183594 51.285156 0.183594 C 23.382812 0.183594 0.0585938 16.257812 0.0585938 35.488281 Z M 102.511719 35.488281 " clip-rule="nonzero"/></clipPath><clipPath id="645e350076"><rect x="0" width="103" y="0" height="36"/></clipPath><clipPath id="7523463eba"><path d="M 113.433594 99.460938 L 126.671875 99.460938 L 126.671875 112.699219 L 113.433594 112.699219 Z M 113.433594 99.460938 " clip-rule="nonzero"/></clipPath><clipPath id="0392811080"><path d="M 120.054688 99.460938 C 116.398438 99.460938 113.433594 102.421875 113.433594 106.078125 C 113.433594 109.734375 116.398438 112.699219 120.054688 112.699219 C 123.710938 112.699219 126.671875 109.734375 126.671875 106.078125 C 126.671875 102.421875 123.710938 99.460938 120.054688 99.460938 Z M 120.054688 99.460938 " clip-rule="nonzero"/></clipPath><clipPath id="a4b0014bc8"><path d="M 0.433594 0.460938 L 13.671875 0.460938 L 13.671875 13.699219 L 0.433594 13.699219 Z M 0.433594 0.460938 " clip-rule="nonzero"/></clipPath><clipPath id="ae15a78f61"><path d="M 7.054688 0.460938 C 3.398438 0.460938 0.433594 3.421875 0.433594 7.078125 C 0.433594 10.734375 3.398438 13.699219 7.054688 13.699219 C 10.710938 13.699219 13.671875 10.734375 13.671875 7.078125 C 13.671875 3.421875 10.710938 0.460938 7.054688 0.460938 Z M 7.054688 0.460938 " clip-rule="nonzero"/></clipPath><clipPath id="9afcff66f8"><rect x="0" width="14" y="0" height="14"/></clipPath><clipPath id="52ccd7ac92"><path d="M 39.824219 57.667969 L 74.828125 57.667969 L 74.828125 128.355469 L 39.824219 128.355469 Z M 39.824219 57.667969 " clip-rule="nonzero"/></clipPath><clipPath id="ef5ea247a3"><path d="M 0.824219 0.667969 L 35.828125 0.667969 L 35.828125 71.355469 L 0.824219 71.355469 Z M 0.824219 0.667969 " clip-rule="nonzero"/></clipPath><clipPath id="a065a24fb0"><rect x="0" width="36" y="0" height="72"/></clipPath><clipPath id="411a02c1ab"><path d="M 39.523438 40.015625 L 74.828125 40.015625 L 74.828125 75.320312 L 39.523438 75.320312 Z M 39.523438 40.015625 " clip-rule="nonzero"/></clipPath><clipPath id="b772fc7f76"><path d="M 57.175781 40.015625 C 47.429688 40.015625 39.523438 47.917969 39.523438 57.667969 C 39.523438 67.417969 47.429688 75.320312 57.175781 75.320312 C 66.925781 75.320312 74.828125 67.417969 74.828125 57.667969 C 74.828125 47.917969 66.925781 40.015625 57.175781 40.015625 Z M 57.175781 40.015625 " clip-rule="nonzero"/></clipPath><clipPath id="8a893d7568"><path d="M 0.523438 0.015625 L 35.828125 0.015625 L 35.828125 35.320312 L 0.523438 35.320312 Z M 0.523438 0.015625 " clip-rule="nonzero"/></clipPath><clipPath id="75700466a9"><path d="M 18.175781 0.015625 C 8.429688 0.015625 0.523438 7.917969 0.523438 17.667969 C 0.523438 27.417969 8.429688 35.320312 18.175781 35.320312 C 27.925781 35.320312 35.828125 27.417969 35.828125 17.667969 C 35.828125 7.917969 27.925781 0.015625 18.175781 0.015625 Z M 18.175781 0.015625 " clip-rule="nonzero"/></clipPath><clipPath id="02c76fce4a"><rect x="0" width="36" y="0" height="36"/></clipPath><clipPath id="d05704e63d"><path d="M 57.175781 40.015625 L 282.441406 40.015625 L 282.441406 75.320312 L 57.175781 75.320312 Z M 57.175781 40.015625 " clip-rule="nonzero"/></clipPath><clipPath id="6532d9aa28"><path d="M 0.175781 0.015625 L 225.441406 0.015625 L 225.441406 35.320312 L 0.175781 35.320312 Z M 0.175781 0.015625 " clip-rule="nonzero"/></clipPath><clipPath id="aa1d1f8a1a"><rect x="0" width="226" y="0" height="36"/></clipPath><clipPath id="24dcc10e2e"><path d="M 229.40625 40.015625 L 335.59375 40.015625 L 335.59375 75.320312 L 229.40625 75.320312 Z M 229.40625 40.015625 " clip-rule="nonzero"/></clipPath><clipPath id="dd1944cc3a"><path d="M 335.476562 75.320312 C 335.476562 56.089844 311.328125 40.015625 282.441406 40.015625 C 253.554688 40.015625 229.40625 56.089844 229.40625 75.320312 Z M 335.476562 75.320312 " clip-rule="nonzero"/></clipPath><clipPath id="683b4a47a2"><path d="M 0.40625 0.015625 L 106.519531 0.015625 L 106.519531 35.320312 L 0.40625 35.320312 Z M 0.40625 0.015625 " clip-rule="nonzero"/></clipPath><clipPath id="5acd4f5936"><path d="M 106.476562 35.320312 C 106.476562 16.089844 82.328125 0.015625 53.441406 0.015625 C 24.554688 0.015625 0.40625 16.089844 0.40625 35.320312 Z M 106.476562 35.320312 " clip-rule="nonzero"/></clipPath><clipPath id="579f34b2e8"><rect x="0" width="107" y="0" height="36"/></clipPath><clipPath id="235cf036e3"><path d="M 293.402344 53.253906 L 306.640625 53.253906 L 306.640625 66.492188 L 293.402344 66.492188 Z M 293.402344 53.253906 " clip-rule="nonzero"/></clipPath><clipPath id="5f41d8fb73"><path d="M 300.019531 53.253906 C 296.367188 53.253906 293.402344 56.21875 293.402344 59.875 C 293.402344 63.53125 296.367188 66.492188 300.019531 66.492188 C 303.675781 66.492188 306.640625 63.53125 306.640625 59.875 C 306.640625 56.21875 303.675781 53.253906 300.019531 53.253906 Z M 300.019531 53.253906 " clip-rule="nonzero"/></clipPath><clipPath id="40249a8ff8"><path d="M 0.402344 0.253906 L 13.640625 0.253906 L 13.640625 13.492188 L 0.402344 13.492188 Z M 0.402344 0.253906 " clip-rule="nonzero"/></clipPath><clipPath id="62064fb01c"><path d="M 7.019531 0.253906 C 3.367188 0.253906 0.402344 3.21875 0.402344 6.875 C 0.402344 10.53125 3.367188 13.492188 7.019531 13.492188 C 10.675781 13.492188 13.640625 10.53125 13.640625 6.875 C 13.640625 3.21875 10.675781 0.253906 7.019531 0.253906 Z M 7.019531 0.253906 " clip-rule="nonzero"/></clipPath><clipPath id="c673c1a9c6"><rect x="0" width="14" y="0" height="14"/></clipPath><clipPath id="dd85a831fe"><path d="M 35.511719 213.609375 L 79.734375 213.609375 L 79.734375 258.175781 L 35.511719 258.175781 Z M 35.511719 213.609375 " clip-rule="nonzero"/></clipPath><clipPath id="b68fc4b0ff"><path d="M 43.011719 213.609375 L 72.234375 213.609375 C 76.375 213.609375 79.734375 216.96875 79.734375 221.109375 L 79.734375 250.671875 C 79.734375 254.816406 76.375 258.171875 72.234375 258.171875 L 43.011719 258.171875 C 38.871094 258.171875 35.511719 254.816406 35.511719 250.671875 L 35.511719 221.109375 C 35.511719 216.96875 38.871094 213.609375 43.011719 213.609375 Z M 43.011719 213.609375 " clip-rule="nonzero"/></clipPath><clipPath id="e9fff61244"><path d="M 0.511719 0.609375 L 44.734375 0.609375 L 44.734375 45.175781 L 0.511719 45.175781 Z M 0.511719 0.609375 " clip-rule="nonzero"/></clipPath><clipPath id="d154cf13df"><path d="M 8.011719 0.609375 L 37.234375 0.609375 C 41.375 0.609375 44.734375 3.96875 44.734375 8.109375 L 44.734375 37.671875 C 44.734375 41.816406 41.375 45.171875 37.234375 45.171875 L 8.011719 45.171875 C 3.871094 45.171875 0.511719 41.816406 0.511719 37.671875 L 0.511719 8.109375 C 0.511719 3.96875 3.871094 0.609375 8.011719 0.609375 Z M 8.011719 0.609375 " clip-rule="nonzero"/></clipPath><clipPath id="c304f3539e"><rect x="0" width="45" y="0" height="46"/></clipPath><clipPath id="52657d9d68"><path d="M 42.636719 221.03125 L 72.707031 221.03125 L 72.707031 250.75 L 42.636719 250.75 Z M 42.636719 221.03125 " clip-rule="nonzero"/></clipPath><clipPath id="e511ff2bce"><path d="M 50.136719 221.03125 L 65.109375 221.03125 C 69.25 221.03125 72.609375 224.390625 72.609375 228.53125 L 72.609375 243.25 C 72.609375 247.394531 69.25 250.75 65.109375 250.75 L 50.136719 250.75 C 45.996094 250.75 42.636719 247.394531 42.636719 243.25 L 42.636719 228.53125 C 42.636719 224.390625 45.996094 221.03125 50.136719 221.03125 Z M 50.136719 221.03125 " clip-rule="nonzero"/></clipPath><clipPath id="bb47837e91"><path d="M 0.636719 0.03125 L 30.707031 0.03125 L 30.707031 29.75 L 0.636719 29.75 Z M 0.636719 0.03125 " clip-rule="nonzero"/></clipPath><clipPath id="5de1d6a48a"><path d="M 8.136719 0.03125 L 23.109375 0.03125 C 27.25 0.03125 30.609375 3.390625 30.609375 7.53125 L 30.609375 22.25 C 30.609375 26.394531 27.25 29.75 23.109375 29.75 L 8.136719 29.75 C 3.996094 29.75 0.636719 26.394531 0.636719 22.25 L 0.636719 7.53125 C 0.636719 3.390625 3.996094 0.03125 8.136719 0.03125 Z M 8.136719 0.03125 " clip-rule="nonzero"/></clipPath><clipPath id="1423cb56d3"><rect x="0" width="31" y="0" height="30"/></clipPath><clipPath id="f8559d3a3b"><path d="M 296.011719 213.609375 L 340.230469 213.609375 L 340.230469 258.175781 L 296.011719 258.175781 Z M 296.011719 213.609375 " clip-rule="nonzero"/></clipPath><clipPath id="9a36b24c72"><path d="M 303.511719 213.609375 L 332.730469 213.609375 C 336.871094 213.609375 340.230469 216.96875 340.230469 221.109375 L 340.230469 250.671875 C 340.230469 254.816406 336.871094 258.171875 332.730469 258.171875 L 303.511719 258.171875 C 299.367188 258.171875 296.011719 254.816406 296.011719 250.671875 L 296.011719 221.109375 C 296.011719 216.96875 299.367188 213.609375 303.511719 213.609375 Z M 303.511719 213.609375 " clip-rule="nonzero"/></clipPath><clipPath id="c719798ae5"><path d="M 0.0117188 0.609375 L 44.230469 0.609375 L 44.230469 45.175781 L 0.0117188 45.175781 Z M 0.0117188 0.609375 " clip-rule="nonzero"/></clipPath><clipPath id="5a401e1fad"><path d="M 7.511719 0.609375 L 36.730469 0.609375 C 40.871094 0.609375 44.230469 3.96875 44.230469 8.109375 L 44.230469 37.671875 C 44.230469 41.816406 40.871094 45.171875 36.730469 45.171875 L 7.511719 45.171875 C 3.367188 45.171875 0.0117188 41.816406 0.0117188 37.671875 L 0.0117188 8.109375 C 0.0117188 3.96875 3.367188 0.609375 7.511719 0.609375 Z M 7.511719 0.609375 " clip-rule="nonzero"/></clipPath><clipPath id="ce2f48bc47"><rect x="0" width="45" y="0" height="46"/></clipPath><clipPath id="62b3ad38f9"><path d="M 303.285156 221.03125 L 333.351562 221.03125 L 333.351562 250.75 L 303.285156 250.75 Z M 303.285156 221.03125 " clip-rule="nonzero"/></clipPath><clipPath id="d4f152a15f"><path d="M 310.785156 221.03125 L 325.753906 221.03125 C 329.898438 221.03125 333.253906 224.390625 333.253906 228.53125 L 333.253906 243.25 C 333.253906 247.394531 329.898438 250.75 325.753906 250.75 L 310.785156 250.75 C 306.640625 250.75 303.285156 247.394531 303.285156 243.25 L 303.285156 228.53125 C 303.285156 224.390625 306.640625 221.03125 310.785156 221.03125 Z M 310.785156 221.03125 " clip-rule="nonzero"/></clipPath><clipPath id="9b1c1d4e65"><path d="M 0.285156 0.03125 L 30.351562 0.03125 L 30.351562 29.75 L 0.285156 29.75 Z M 0.285156 0.03125 " clip-rule="nonzero"/></clipPath><clipPath id="f99f2f310b"><path d="M 7.785156 0.03125 L 22.753906 0.03125 C 26.898438 0.03125 30.253906 3.390625 30.253906 7.53125 L 30.253906 22.25 C 30.253906 26.394531 26.898438 29.75 22.753906 29.75 L 7.785156 29.75 C 3.640625 29.75 0.285156 26.394531 0.285156 22.25 L 0.285156 7.53125 C 0.285156 3.390625 3.640625 0.03125 7.785156 0.03125 Z M 7.785156 0.03125 " clip-rule="nonzero"/></clipPath><clipPath id="18e3352c09"><rect x="0" width="31" y="0" height="30"/></clipPath><clipPath id="f6af623d37"><rect x="0" width="170" y="0" height="38"/></clipPath></defs><g clip-path="url(#0e5bbd279e)"><g clip-path="url(#43576b45a7)"><g transform="matrix(1, 0, 0, 1, 11, 136)"><g clip-path="url(#9d25c63481)"><g clip-path="url(#d9b62edb60)"><g clip-path="url(#47096eef69)"><path fill="#dbd2cc" d="M 0.28125 0.796875 L 353.300781 0.796875 L 353.300781 198.984375 L 0.28125 198.984375 Z M 0.28125 0.796875 " fill-opacity="1" fill-rule="nonzero"/></g></g></g></g></g></g><g clip-path="url(#8981db7694)"><g transform="matrix(1, 0, 0, 1, 11, 229)"><g clip-path="url(#85a7e019da)"><g clip-path="url(#cf7e7f0483)"><path fill="#0d1117" d="M 0.28125 0.367188 L 353.320312 0.367188 L 353.320312 13.414062 L 0.28125 13.414062 Z M 0.28125 0.367188 " fill-opacity="1" fill-rule="nonzero"/></g></g></g></g><g clip-path="url(#d9ee26d778)"><g transform="matrix(1, 0, 0, 1, 300, 101)"><g clip-path="url(#4cdcadfea1)"><g clip-path="url(#f363918c08)"><path fill="#fed440" d="M 0.765625 0.835938 L 35.726562 0.835938 L 35.726562 35.796875 L 0.765625 35.796875 Z M 0.765625 0.835938 " fill-opacity="1" fill-rule="nonzero"/></g></g></g></g><g clip-path="url(#67e6b1815b)"><g clip-path="url(#a4e8a8ebf6)"><g transform="matrix(1, 0, 0, 1, 300, 84)"><g clip-path="url(#d839f5f732)"><g clip-path="url(#a83cd7b7ed)"><g clip-path="url(#39a119ec82)"><path fill="#fed440" d="M 0.46875 0.183594 L 35.773438 0.183594 L 35.773438 35.488281 L 0.46875 35.488281 Z M 0.46875 0.183594 " fill-opacity="1" fill-rule="nonzero"/></g></g></g></g></g></g><g clip-path="url(#18d078c6a4)"><g transform="matrix(1, 0, 0, 1, 136, 84)"><g clip-path="url(#aaec283780)"><g clip-path="url(#966e7d397d)"><path fill="#fed440" d="M 0.808594 0.183594 L 182.289062 0.183594 L 182.289062 35.488281 L 0.808594 35.488281 Z M 0.808594 0.183594 " fill-opacity="1" fill-rule="nonzero"/></g></g></g></g><g clip-path="url(#203c65ae22)"><g clip-path="url(#8d4ace4c7a)"><g transform="matrix(1, 0, 0, 1, 88, 84)"><g clip-path="url(#645e350076)"><g clip-path="url(#cb92d515d7)"><g clip-path="url(#ecba0657ff)"><path fill="#fed440" d="M 0.0585938 0.183594 L 102.519531 0.183594 L 102.519531 35.488281 L 0.0585938 35.488281 Z M 0.0585938 0.183594 " fill-opacity="1" fill-rule="nonzero"/></g></g></g></g></g></g><g clip-path="url(#7523463eba)"><g clip-path="url(#0392811080)"><g transform="matrix(1, 0, 0, 1, 113, 99)"><g clip-path="url(#9afcff66f8)"><g clip-path="url(#a4b0014bc8)"><g clip-path="url(#ae15a78f61)"><path fill="#0d1117" d="M 0.433594 0.460938 L 13.671875 0.460938 L 13.671875 13.699219 L 0.433594 13.699219 Z M 0.433594 0.460938 " fill-opacity="1" fill-rule="nonzero"/></g></g></g></g></g></g><g clip-path="url(#52ccd7ac92)"><g transform="matrix(1, 0, 0, 1, 39, 57)"><g clip-path="url(#a065a24fb0)"><g clip-path="url(#ef5ea247a3)"><path fill="#3e7baa" d="M 0.824219 0.667969 L 35.828125 0.667969 L 35.828125 71.363281 L 0.824219 71.363281 Z M 0.824219 0.667969 " fill-opacity="1" fill-rule="nonzero"/></g></g></g></g><g clip-path="url(#411a02c1ab)"><g clip-path="url(#b772fc7f76)"><g transform="matrix(1, 0, 0, 1, 39, 40)"><g clip-path="url(#02c76fce4a)"><g clip-path="url(#8a893d7568)"><g clip-path="url(#75700466a9)"><path fill="#3e7baa" d="M 0.523438 0.015625 L 35.828125 0.015625 L 35.828125 35.320312 L 0.523438 35.320312 Z M 0.523438 0.015625 " fill-opacity="1" fill-rule="nonzero"/></g></g></g></g></g></g><g clip-path="url(#d05704e63d)"><g transform="matrix(1, 0, 0, 1, 57, 40)"><g clip-path="url(#aa1d1f8a1a)"><g clip-path="url(#6532d9aa28)"><path fill="#3e7baa" d="M 0.175781 0.015625 L 225.511719 0.015625 L 225.511719 35.320312 L 0.175781 35.320312 Z M 0.175781 0.015625 " fill-opacity="1" fill-rule="nonzero"/></g></g></g></g><g clip-path="url(#24dcc10e2e)"><g clip-path="url(#dd1944cc3a)"><g transform="matrix(1, 0, 0, 1, 229, 40)"><g clip-path="url(#579f34b2e8)"><g clip-path="url(#683b4a47a2)"><g clip-path="url(#5acd4f5936)"><path fill="#3e7baa" d="M 0.40625 0.015625 L 106.457031 0.015625 L 106.457031 35.320312 L 0.40625 35.320312 Z M 0.40625 0.015625 " fill-opacity="1" fill-rule="nonzero"/></g></g></g></g></g></g><g clip-path="url(#235cf036e3)"><g clip-path="url(#5f41d8fb73)"><g transform="matrix(1, 0, 0, 1, 293, 53)"><g clip-path="url(#c673c1a9c6)"><g clip-path="url(#40249a8ff8)"><g clip-path="url(#62064fb01c)"><path fill="#0d1117" d="M 0.402344 0.253906 L 13.640625 0.253906 L 13.640625 13.492188 L 0.402344 13.492188 Z M 0.402344 0.253906 " fill-opacity="1" fill-rule="nonzero"/></g></g></g></g></g></g><g clip-path="url(#dd85a831fe)"><g clip-path="url(#b68fc4b0ff)"><g transform="matrix(1, 0, 0, 1, 35, 213)"><g clip-path="url(#c304f3539e)"><g clip-path="url(#e9fff61244)"><g clip-path="url(#d154cf13df)"><path fill="#0d1117" d="M 0.511719 0.609375 L 44.734375 0.609375 L 44.734375 45.175781 L 0.511719 45.175781 Z M 0.511719 0.609375 " fill-opacity="1" fill-rule="nonzero"/></g></g></g></g></g></g><g clip-path="url(#52657d9d68)"><g clip-path="url(#e511ff2bce)"><g transform="matrix(1, 0, 0, 1, 42, 221)"><g clip-path="url(#1423cb56d3)"><g clip-path="url(#bb47837e91)"><g clip-path="url(#5de1d6a48a)"><path fill="#fed440" d="M 0.636719 0.03125 L 30.589844 0.03125 L 30.589844 29.75 L 0.636719 29.75 Z M 0.636719 0.03125 " fill-opacity="1" fill-rule="nonzero"/></g></g></g></g></g></g><g clip-path="url(#f8559d3a3b)"><g clip-path="url(#9a36b24c72)"><g transform="matrix(1, 0, 0, 1, 296, 213)"><g clip-path="url(#ce2f48bc47)"><g clip-path="url(#c719798ae5)"><g clip-path="url(#5a401e1fad)"><path fill="#0d1117" d="M 0.0117188 0.609375 L 44.230469 0.609375 L 44.230469 45.175781 L 0.0117188 45.175781 Z M 0.0117188 0.609375 " fill-opacity="1" fill-rule="nonzero"/></g></g></g></g></g></g><g clip-path="url(#62b3ad38f9)"><g clip-path="url(#d4f152a15f)"><g transform="matrix(1, 0, 0, 1, 303, 221)"><g clip-path="url(#18e3352c09)"><g clip-path="url(#9b1c1d4e65)"><g clip-path="url(#f99f2f310b)"><path fill="#3e7baa" d="M 0.285156 0.03125 L 30.234375 0.03125 L 30.234375 29.75 L 0.285156 29.75 Z M 0.285156 0.03125 " fill-opacity="1" fill-rule="nonzero"/></g></g></g></g></g></g><g transform="matrix(1, 0, 0, 1, 103, 165)"><g clip-path="url(#f6af623d37)"><g fill="#0d1117" fill-opacity="1"><g transform="translate(0.902031, 26.647254)"><g><path d="M 9.515625 -12.015625 C 10.578125 -12.015625 11.40625 -12.128906 12 -12.359375 C 12.59375 -12.597656 12.988281 -12.921875 13.1875 -13.328125 C 13.382812 -13.734375 13.484375 -14.28125 13.484375 -14.96875 L 13.484375 -16.078125 C 13.484375 -16.578125 13.394531 -16.957031 13.21875 -17.21875 C 13.039062 -17.476562 12.660156 -17.679688 12.078125 -17.828125 C 11.503906 -17.984375 10.648438 -18.0625 9.515625 -18.0625 L 5.15625 -18.0625 L 5.15625 -12.015625 Z M 16.671875 -16.078125 L 16.671875 -14.96875 C 16.671875 -13.03125 16.09375 -11.519531 14.9375 -10.4375 C 13.789062 -9.363281 11.984375 -8.828125 9.515625 -8.828125 L 5.15625 -8.828125 L 5.15625 0 L 1.96875 0 L 1.96875 -21.25 L 9.515625 -21.25 C 10.878906 -21.25 12.03125 -21.140625 12.96875 -20.921875 C 13.90625 -20.703125 14.644531 -20.363281 15.1875 -19.90625 C 15.726562 -19.445312 16.109375 -18.910156 16.328125 -18.296875 C 16.554688 -17.691406 16.671875 -16.953125 16.671875 -16.078125 Z M 16.671875 -16.078125 "/></g></g></g><g fill="#0d1117" fill-opacity="1"><g transform="translate(19.5437, 26.647254)"><g><path d="M 7.75 0.375 L 7.75 -7.421875 L 1.109375 -21.25 L 4.640625 -21.25 L 9.34375 -11.453125 L 14.0625 -21.25 L 17.609375 -21.25 L 10.9375 -7.421875 L 10.9375 0.375 Z M 7.75 0.375 "/></g></g></g><g fill="#0d1117" fill-opacity="1"><g transform="translate(38.185369, 26.647254)"><g><path d="M 16.671875 -21.25 L 16.671875 -18.0625 L 10.9375 -18.0625 L 10.9375 0 L 7.75 0 L 7.75 -18.0625 L 1.96875 -18.0625 L 1.96875 -21.25 Z M 16.671875 -21.25 "/></g></g></g><g fill="#0d1117" fill-opacity="1"><g transform="translate(56.827038, 26.647254)"><g><path d="M 9.484375 -18.4375 L 9.21875 -18.4375 C 8.238281 -18.4375 7.460938 -18.21875 6.890625 -17.78125 C 6.316406 -17.34375 5.882812 -16.601562 5.59375 -15.5625 C 5.300781 -14.519531 5.15625 -13.109375 5.15625 -11.328125 L 5.15625 -10.375 C 5.15625 -7.832031 5.484375 -5.9375 6.140625 -4.6875 C 6.804688 -3.4375 7.835938 -2.8125 9.234375 -2.8125 L 9.484375 -2.8125 C 10.867188 -2.820312 11.878906 -3.445312 12.515625 -4.6875 C 13.160156 -5.925781 13.484375 -7.820312 13.484375 -10.375 L 13.484375 -11.34375 C 13.484375 -13.132812 13.347656 -14.546875 13.078125 -15.578125 C 12.804688 -16.609375 12.382812 -17.34375 11.8125 -17.78125 C 11.238281 -18.21875 10.460938 -18.4375 9.484375 -18.4375 Z M 16.671875 -11.34375 L 16.671875 -10.375 C 16.671875 -9.082031 16.585938 -7.898438 16.421875 -6.828125 C 16.253906 -5.765625 16.03125 -4.867188 15.75 -4.140625 C 15.476562 -3.410156 15.140625 -2.765625 14.734375 -2.203125 C 14.335938 -1.648438 13.929688 -1.210938 13.515625 -0.890625 C 13.109375 -0.578125 12.65625 -0.316406 12.15625 -0.109375 C 11.664062 0.0859375 11.210938 0.21875 10.796875 0.28125 C 10.378906 0.34375 9.941406 0.375 9.484375 0.375 L 9.234375 0.375 C 8.785156 0.375 8.347656 0.34375 7.921875 0.28125 C 7.492188 0.21875 7.03125 0.0859375 6.53125 -0.109375 C 6.03125 -0.316406 5.566406 -0.582031 5.140625 -0.90625 C 4.722656 -1.226562 4.316406 -1.664062 3.921875 -2.21875 C 3.523438 -2.78125 3.1875 -3.425781 2.90625 -4.15625 C 2.625 -4.882812 2.394531 -5.78125 2.21875 -6.84375 C 2.050781 -7.90625 1.96875 -9.082031 1.96875 -10.375 L 1.96875 -11.328125 C 1.96875 -12.273438 2.007812 -13.144531 2.09375 -13.9375 C 2.175781 -14.738281 2.316406 -15.546875 2.515625 -16.359375 C 2.710938 -17.171875 2.988281 -17.878906 3.34375 -18.484375 C 3.707031 -19.097656 4.148438 -19.644531 4.671875 -20.125 C 5.191406 -20.613281 5.832031 -20.984375 6.59375 -21.234375 C 7.363281 -21.492188 8.238281 -21.625 9.21875 -21.625 L 9.484375 -21.625 C 10.460938 -21.625 11.335938 -21.492188 12.109375 -21.234375 C 12.890625 -20.972656 13.535156 -20.597656 14.046875 -20.109375 C 14.566406 -19.628906 15.003906 -19.082031 15.359375 -18.46875 C 15.710938 -17.863281 15.984375 -17.15625 16.171875 -16.34375 C 16.359375 -15.53125 16.488281 -14.734375 16.5625 -13.953125 C 16.632812 -13.171875 16.671875 -12.300781 16.671875 -11.34375 Z M 16.671875 -11.34375 "/></g></g></g><g fill="#0d1117" fill-opacity="1"><g transform="translate(75.468706, 26.647254)"><g><path d="M 9.484375 -18.4375 L 9.21875 -18.4375 C 8.238281 -18.4375 7.460938 -18.21875 6.890625 -17.78125 C 6.316406 -17.34375 5.882812 -16.601562 5.59375 -15.5625 C 5.300781 -14.519531 5.15625 -13.109375 5.15625 -11.328125 L 5.15625 -10.375 C 5.15625 -7.832031 5.484375 -5.9375 6.140625 -4.6875 C 6.804688 -3.4375 7.835938 -2.8125 9.234375 -2.8125 L 9.484375 -2.8125 C 10.867188 -2.820312 11.878906 -3.445312 12.515625 -4.6875 C 13.160156 -5.925781 13.484375 -7.820312 13.484375 -10.375 L 13.484375 -11.34375 C 13.484375 -13.132812 13.347656 -14.546875 13.078125 -15.578125 C 12.804688 -16.609375 12.382812 -17.34375 11.8125 -17.78125 C 11.238281 -18.21875 10.460938 -18.4375 9.484375 -18.4375 Z M 16.671875 -11.34375 L 16.671875 -10.375 C 16.671875 -9.082031 16.585938 -7.898438 16.421875 -6.828125 C 16.253906 -5.765625 16.03125 -4.867188 15.75 -4.140625 C 15.476562 -3.410156 15.140625 -2.765625 14.734375 -2.203125 C 14.335938 -1.648438 13.929688 -1.210938 13.515625 -0.890625 C 13.109375 -0.578125 12.65625 -0.316406 12.15625 -0.109375 C 11.664062 0.0859375 11.210938 0.21875 10.796875 0.28125 C 10.378906 0.34375 9.941406 0.375 9.484375 0.375 L 9.234375 0.375 C 8.785156 0.375 8.347656 0.34375 7.921875 0.28125 C 7.492188 0.21875 7.03125 0.0859375 6.53125 -0.109375 C 6.03125 -0.316406 5.566406 -0.582031 5.140625 -0.90625 C 4.722656 -1.226562 4.316406 -1.664062 3.921875 -2.21875 C 3.523438 -2.78125 3.1875 -3.425781 2.90625 -4.15625 C 2.625 -4.882812 2.394531 -5.78125 2.21875 -6.84375 C 2.050781 -7.90625 1.96875 -9.082031 1.96875 -10.375 L 1.96875 -11.328125 C 1.96875 -12.273438 2.007812 -13.144531 2.09375 -13.9375 C 2.175781 -14.738281 2.316406 -15.546875 2.515625 -16.359375 C 2.710938 -17.171875 2.988281 -17.878906 3.34375 -18.484375 C 3.707031 -19.097656 4.148438 -19.644531 4.671875 -20.125 C 5.191406 -20.613281 5.832031 -20.984375 6.59375 -21.234375 C 7.363281 -21.492188 8.238281 -21.625 9.21875 -21.625 L 9.484375 -21.625 C 10.460938 -21.625 11.335938 -21.492188 12.109375 -21.234375 C 12.890625 -20.972656 13.535156 -20.597656 14.046875 -20.109375 C 14.566406 -19.628906 15.003906 -19.082031 15.359375 -18.46875 C 15.710938 -17.863281 15.984375 -17.15625 16.171875 -16.34375 C 16.359375 -15.53125 16.488281 -14.734375 16.5625 -13.953125 C 16.632812 -13.171875 16.671875 -12.300781 16.671875 -11.34375 Z M 16.671875 -11.34375 "/></g></g></g><g fill="#0d1117" fill-opacity="1"><g transform="translate(94.110375, 26.647254)"><g><path d="M 5.15625 -3.203125 L 16.671875 -3.203125 L 16.671875 0 L 1.96875 0 L 1.96875 -21.25 L 5.15625 -21.25 Z M 5.15625 -3.203125 "/></g></g></g><g fill="#0d1117" fill-opacity="1"><g transform="translate(112.752044, 26.647254)"><g><path d="M 1.953125 0 L 1.953125 -21.25 L 5.140625 -21.25 L 5.140625 -11.671875 L 13.53125 -21.25 L 17.78125 -21.25 L 9.625 -11.9375 L 18.046875 0 C 18.046875 0 16.742188 0 14.140625 0 L 7.46875 -9.484375 L 5.140625 -6.84375 L 5.140625 0 Z M 1.953125 0 "/></g></g></g><g fill="#0d1117" fill-opacity="1"><g transform="translate(131.393712, 26.647254)"><g><path d="M 15.15625 -21.25 L 15.15625 -18.0625 L 10.9375 -18.0625 L 10.9375 -3.1875 L 15.15625 -3.1875 L 15.15625 0 L 3.484375 0 L 3.484375 -3.1875 L 7.75 -3.1875 L 7.75 -18.0625 L 3.484375 -18.0625 L 3.484375 -21.25 Z M 15.15625 -21.25 "/></g></g></g><g fill="#0d1117" fill-opacity="1"><g transform="translate(150.035381, 26.647254)"><g><path d="M 16.671875 -21.25 L 16.671875 -18.0625 L 10.9375 -18.0625 L 10.9375 0 L 7.75 0 L 7.75 -18.0625 L 1.96875 -18.0625 L 1.96875 -21.25 Z M 16.671875 -21.25 "/></g></g></g></g></g></svg>